User Type,Username,Date,Text
,bhobson333,2013-02-09T03:37Z,"Video
Format                           : MPEG-4 Visual
Format profile                   : Advanced Simple@L5
Format settings, Matrix          : Default (H.263)
Codec ID                         : XVID
Duration                         : 1h 55mn
Bit rate                         : 3 250 Kbps
Width                            : 1 280 pixels
Height                           : 544 pixels
Display aspect ratio             : 2.35:1
Frame rate                       : 23.976 fps
Bit depth                        : 8 bits
Bits/(Pixel*Frame)               : 0.195
Stream size                      : 2.63 GiB (88%)
Writing library                  : XviD 64

Audio
Format                           : AC-3
Duration                         : 1h 55mn
Bit rate mode                    : Constant
Bit rate                         : 448 Kbps
Channel(s)                       : 6 channels
Channel positions                : Front: L C R, Side: L R, LFE
Sampling rate                    : 48.0 KHz
Bit depth                        : 16 bits
Stream size                      : 371 MiB (12%)
Alignment                        : Aligned on interleaves
Interleave, duration             : 64 ms (1.53 video frames)
Interleave, preload duration     : 192 ms"
,bhobson333,2013-02-09T03:38Z,Subtitles in separate .srt files - ENG & BG
